<svg version="1.1" id="Layer_1" xmlns="http://www.w3.org/2000/svg" xmlns:xlink="http://www.w3.org/1999/xlink" x="0px" y="0px"
	 width="100%" viewBox="0 0 192 208" enable-background="new 0 0 192 208" xml:space="preserve">
<path fill="#A39B9B" opacity="1.000000" stroke="none" 
	d="
M95.568573,41.943504 
	C105.384247,44.771393 108.391632,49.220783 107.457016,59.345001 
	C107.271049,61.359467 107.932449,62.393044 109.705627,63.199486 
	C128.355942,71.681641 135.993301,86.675743 135.323730,106.598862 
	C135.183884,110.759888 135.477051,114.937813 135.278961,119.094055 
	C134.805054,129.037888 137.603561,137.730988 144.151566,145.353668 
	C150.857361,153.160049 153.376663,162.537186 153.310547,172.689941 
	C153.275024,178.146408 151.711395,179.915298 146.209900,179.994339 
	C136.880676,180.128403 127.545113,180.139832 118.217911,179.938873 
	C114.542305,179.859680 112.661591,180.780502 111.519295,184.707367 
	C109.042221,193.222794 101.825714,198.306549 93.734001,198.197449 
	C85.686005,198.088928 78.469490,192.858887 75.969124,184.533127 
	C74.855354,180.824478 72.892776,179.983749 69.471230,180.036270 
	C60.641827,180.171814 51.808498,180.119217 42.977375,180.054413 
	C35.420956,179.998978 34.191151,178.129227 34.378944,170.776184 
	C34.651730,160.095154 38.374584,151.012604 45.174015,142.970917 
	C51.512833,135.474014 52.683968,126.464417 52.284023,117.133522 
	C51.954937,109.455750 51.734207,101.743111 53.101158,94.207123 
	C55.647331,80.170082 63.564789,69.905014 76.509445,63.777126 
	C79.272202,62.469261 80.395126,61.315525 79.923950,57.858036 
	C78.635658,48.404453 85.058189,41.966766 95.568573,41.943504 
M83.567131,71.966034 
	C71.832611,76.476837 64.953255,84.887138 62.943245,97.345978 
	C61.925816,103.652420 62.218037,109.997002 62.496334,116.281410 
	C63.103134,129.984222 60.167706,142.267426 50.821041,152.818329 
	C46.927856,157.213104 44.796349,162.699509 45.134258,169.046417 
	C46.039341,169.267700 46.813873,169.621826 47.588833,169.622772 
	C78.063873,169.659607 108.539009,169.641647 139.013977,169.705688 
	C142.330658,169.712662 143.048645,168.057587 142.538895,165.271103 
	C141.524475,159.725693 138.960815,154.941925 135.363739,150.647552 
	C129.649765,143.825897 126.416206,136.053741 125.453529,127.111877 
	C124.592598,119.115074 124.568115,111.114265 124.980186,103.172714 
	C126.087830,81.825600 105.801918,65.068642 83.567131,71.966034 
M87.647842,184.977249 
	C92.536674,188.618591 97.297722,188.482864 100.324257,184.538666 
	C101.933655,182.441284 102.441109,180.331985 98.859047,180.180435 
	C94.627007,180.001389 90.327042,179.461441 86.241470,180.606018 
	C85.464256,182.352066 86.512009,183.338593 87.647842,184.977249 
M90.738068,54.296211 
	C89.724457,56.694035 90.360146,58.546326 92.802887,59.433044 
	C94.519142,60.056049 96.057510,59.348316 97.037292,57.798775 
	C97.914452,56.411510 97.879913,54.916233 96.710670,53.733410 
	C94.934937,51.937031 93.020477,51.768360 90.738068,54.296211 
z"/>
<path fill="#A39B9B" opacity="1.000000" stroke="none" 
	d="
M142.845413,96.088516 
	C141.016815,80.738258 133.715256,69.172279 121.530556,60.557137 
	C120.046616,59.507919 118.423798,58.540615 117.247871,57.199856 
	C115.845505,55.600914 115.597427,53.570484 116.874611,51.656715 
	C118.090553,49.834743 119.804176,48.929955 122.005180,49.474312 
	C123.116364,49.749134 124.260925,50.146526 125.215004,50.760880 
	C143.170792,62.322952 152.455139,78.839005 153.308456,100.141609 
	C153.409531,102.664787 152.673706,104.796783 150.225388,105.885017 
	C148.612076,106.602112 146.993805,106.373772 145.512146,105.304848 
	C143.853790,104.108459 143.497650,102.336563 143.279770,100.495720 
	C143.123520,99.175499 143.013992,97.849754 142.845413,96.088516 
z"/>
<path fill="#A39B9B" opacity="1.000000" stroke="none" 
	d="
M36.629578,84.873398 
	C40.806198,70.715614 48.883080,59.872250 60.712395,51.802540 
	C61.937935,50.966499 63.259315,50.206394 64.637581,49.672920 
	C67.116966,48.713242 69.360443,49.328362 70.663338,51.663868 
	C71.909889,53.898369 71.664398,56.283684 69.618828,57.997658 
	C67.331245,59.914413 64.713524,61.439037 62.439983,63.370354 
	C51.219688,72.901726 45.167641,85.060989 44.359032,99.765633 
	C44.164806,103.297554 43.240711,106.253517 39.130024,106.213676 
	C34.790550,106.171631 34.307941,102.914635 34.439068,99.499847 
	C34.624046,94.682632 34.887207,89.872978 36.629578,84.873398 
z"/>
</svg>