<svg version="1.1" id="Layer_1" xmlns="http://www.w3.org/2000/svg" xmlns:xlink="http://www.w3.org/1999/xlink" x="0px" y="0px"
	 width="100%" viewBox="0 0 208 160" enable-background="new 0 0 208 160" xml:space="preserve">
<path fill="rgba(75, 150, 255, 1)" opacity="1.000000" stroke="none" 
	d="
M3.973766,93.885231 
	C3.975366,86.405273 3.867786,79.407547 4.005889,72.414658 
	C4.226004,61.269096 10.332330,54.532677 21.433073,55.181400 
	C29.956392,55.679504 34.526028,52.643925 37.851784,45.132061 
	C41.210392,37.545994 45.766224,30.496256 49.662937,23.140244 
	C53.025955,16.791710 58.062420,13.609578 65.348244,13.652620 
	C83.669342,13.760854 101.991745,13.742842 120.313133,13.662010 
	C127.674553,13.629534 133.044281,16.526388 136.530991,23.154041 
	C141.413651,32.435196 146.652008,41.529888 151.492783,50.832062 
	C153.103394,53.927086 155.128937,55.113022 158.575027,55.001858 
	C165.397034,54.781799 172.232178,54.847240 179.059708,54.945854 
	C191.162903,55.120667 197.201050,61.193222 197.259140,73.165993 
	C197.298737,81.327278 197.306335,89.489304 197.242493,97.650322 
	C197.194366,103.803314 195.753250,105.158028 189.484879,105.249077 
	C187.986176,105.270851 186.464355,105.415855 184.991959,105.217033 
	C180.342453,104.589157 177.503784,106.110939 175.225281,110.622345 
	C171.894104,117.218018 165.648010,120.415321 158.306793,120.131752 
	C151.053833,119.851601 144.985580,116.558029 141.884705,109.725975 
	C140.195435,106.004036 137.920700,105.147591 134.178452,105.171822 
	C111.693581,105.317451 89.207047,105.318108 66.721947,105.200218 
	C63.162045,105.181549 60.906166,105.969521 59.383045,109.546768 
	C56.314342,116.754005 50.127522,120.024284 42.660923,120.139465 
	C34.942841,120.258514 28.689247,116.758064 25.309839,109.616394 
	C23.687908,106.188782 21.666380,104.756989 18.035465,105.262215 
	C17.055370,105.398582 16.039658,105.277893 15.040290,105.276993 
	C4.518967,105.267517 4.019088,104.774895 3.973766,93.885231 
M71.583237,96.607788 
	C92.565254,96.607697 113.547546,96.553596 134.528992,96.662697 
	C137.876328,96.680107 139.825043,95.926186 141.395721,92.530174 
	C144.744278,85.290146 150.723251,81.574135 158.933411,81.610466 
	C167.134583,81.646744 173.268799,85.243088 176.282608,92.698952 
	C178.390076,97.912666 182.204895,96.701820 185.752594,96.475227 
	C189.948654,96.207214 188.318771,92.605568 188.624344,90.229179 
	C188.792801,88.919098 188.618774,87.568039 188.651947,86.236771 
	C188.703369,84.171921 188.162659,82.565239 185.747833,82.424629 
	C183.032761,82.266541 181.193176,80.906517 181.093979,78.197426 
	C180.990341,75.367424 183.089111,74.122574 185.609924,73.788246 
	C188.729614,73.374496 188.909698,71.632614 188.087021,69.150749 
	C186.638107,64.779716 183.218903,63.478756 179.116791,63.440399 
	C170.624741,63.360992 162.128006,63.268841 153.640305,63.474487 
	C150.001938,63.562645 147.839844,62.286983 146.139618,59.052982 
	C140.718246,48.741020 134.976669,38.597942 129.478409,28.325588 
	C127.302116,24.259621 124.321762,22.233746 119.522644,22.277960 
	C101.872459,22.440571 84.219215,22.436562 66.568771,22.292578 
	C62.001114,22.255316 59.097778,24.026508 56.990742,28.005930 
	C51.772690,37.860912 46.129116,47.495781 41.100735,57.443630 
	C38.843884,61.908440 36.081871,63.921371 30.993097,63.539047 
	C26.892960,63.230999 22.665455,62.834053 18.575640,63.937130 
	C15.587763,64.743004 13.755729,66.613213 13.248554,69.828209 
	C12.717567,73.194145 15.013431,73.516228 17.307438,74.238518 
	C19.204897,74.835945 20.311419,76.380852 20.170757,78.456047 
	C20.032255,80.499428 18.864794,81.781448 16.828405,82.272232 
	C9.674667,83.996346 13.762516,89.606842 13.349551,93.377975 
	C12.901361,97.470795 16.753040,96.299286 19.224463,96.590698 
	C22.559298,96.983917 23.711809,94.922897 25.012447,92.315575 
	C31.633936,79.041786 50.947533,77.372925 58.094353,89.993759 
	C61.348980,95.741234 64.821693,97.448746 71.583237,96.607788 
M159.309845,90.286209 
	C150.997665,90.873276 146.252090,97.403999 148.952927,104.539101 
	C150.691055,109.130920 155.460342,112.109421 159.949921,111.406944 
	C165.034592,110.611343 169.176880,106.283325 169.598007,101.326256 
	C170.030411,96.236473 166.393829,92.029648 159.309845,90.286209 
M36.053291,92.426224 
	C31.390596,97.037704 30.497271,101.005470 33.072327,105.666351 
	C35.380199,109.843620 40.132812,112.204391 44.270149,111.246964 
	C48.760811,110.207764 51.605579,107.396454 52.581036,102.967957 
	C53.512344,98.739883 52.313511,94.998100 48.743793,92.380661 
	C44.879330,89.547112 40.785179,89.408325 36.053291,92.426224 
z"/>
<path fill="rgba(75, 150, 255, 1)" opacity="1.000000" stroke="none" 
	d="
M120.938492,60.157528 
	C112.964920,60.148346 105.479195,60.228603 97.997040,60.100231 
	C92.094040,59.998959 90.725136,58.511520 90.683907,52.594692 
	C90.642189,46.607666 90.699585,40.620010 90.678299,34.632755 
	C90.664413,30.725559 92.641922,28.755917 96.472755,28.719166 
	C102.292732,28.663334 108.132683,28.420708 113.929337,28.795649 
	C120.626762,29.228853 125.498444,32.699207 127.883179,39.142628 
	C129.439407,43.347500 130.859863,47.605492 132.234161,51.874138 
	C134.120834,57.734280 132.547806,59.932220 126.417076,60.138939 
	C124.755692,60.194962 123.091034,60.153637 120.938492,60.157528 
M108.585228,51.631298 
	C112.986076,51.396465 117.458229,52.200790 121.803452,51.069851 
	C120.879402,40.282944 118.024841,37.377941 108.633575,37.353718 
	C98.575111,37.327774 98.650185,37.323101 99.296043,47.696407 
	C99.462852,50.375530 100.354385,51.749374 103.142212,51.628769 
	C104.636185,51.564140 106.135612,51.625763 108.585228,51.631298 
z"/>
<path fill="rgba(75, 150, 255, 1)" opacity="1.000000" stroke="none" 
	d="
M55.281960,48.347641 
	C56.053749,46.089634 56.802101,44.227901 57.287777,42.299992 
	C60.422752,29.855499 69.467155,27.921024 79.428162,28.752462 
	C82.312668,28.993229 84.135872,30.639238 84.189781,33.546455 
	C84.322273,40.691772 84.313530,47.841686 84.228104,54.988159 
	C84.189606,58.208969 82.082703,59.927467 79.105110,60.005184 
	C72.129532,60.187237 65.138069,60.269424 58.168995,59.991638 
	C54.297485,59.837318 52.538132,57.434486 53.643478,53.464870 
	C54.088596,51.866333 54.636127,50.296310 55.281960,48.347641 
M67.761292,40.288082 
	C67.152817,41.461361 66.444366,42.594322 65.952293,43.814541 
	C63.039219,51.038280 63.958691,52.230198 71.692589,51.626865 
	C77.945839,51.139046 75.106712,46.341396 75.558647,43.274448 
	C75.821533,41.490356 76.597801,38.945267 74.435196,37.827019 
	C72.067123,36.602524 70.005791,38.078259 67.761292,40.288082 
z"/>
<path fill="rgba(75, 150, 255, 1)" opacity="1.000000" stroke="none" 
	d="
M95.317863,66.654755 
	C98.092499,66.650360 100.418709,66.610497 102.739716,66.702171 
	C104.846771,66.785393 106.096298,67.964844 106.441238,70.048172 
	C106.832382,72.410538 105.683006,73.911232 103.569214,74.643517 
	C100.996796,75.534660 98.298676,75.250557 95.669327,74.995461 
	C93.187462,74.754669 91.067513,73.631104 90.887665,70.815628 
	C90.720276,68.195183 92.384155,66.948235 95.317863,66.654755 
z"/>
</svg>