<svg version="1.1" id="Layer_1" xmlns="http://www.w3.org/2000/svg" xmlns:xlink="http://www.w3.org/1999/xlink" x="0px" y="0px"
	 width="100%" viewBox="0 0 288 288" enable-background="new 0 0 288 288" xml:space="preserve">
<path fill="rgba(75, 150, 255, 1)" opacity="1.000000" stroke="none" 
	d="
M68.693268,255.148407 
	C62.576374,255.612488 57.883671,253.633484 53.916416,249.549103 
	C48.811363,244.293365 43.458138,239.276138 38.417007,233.961533 
	C32.504890,227.728683 31.906145,219.117493 36.725060,211.940781 
	C39.324036,208.070160 42.057228,204.285156 44.846424,200.548538 
	C46.410789,198.452789 46.821892,196.454025 45.392376,194.133499 
	C44.698750,193.007538 43.970978,191.778580 43.743542,190.509369 
	C42.138084,181.550018 36.151089,178.481628 27.820845,178.231720 
	C25.511118,178.162445 23.201023,177.631592 20.919884,177.170197 
	C13.475946,175.664566 7.901492,169.231339 7.738880,161.622192 
	C7.568068,153.629303 7.634686,145.629578 7.704245,137.633774 
	C7.777385,129.226471 12.558570,123.068481 20.839815,121.077408 
	C25.358929,119.990883 30.005121,119.407303 34.612831,118.723831 
	C37.697842,118.266235 39.230022,116.534889 40.845310,113.825127 
	C46.422737,104.468597 45.140469,96.916214 38.102615,88.421219 
	C29.374556,77.886055 30.652163,70.625237 40.329735,60.854649 
	C45.016575,56.122761 49.694645,51.366573 54.626026,46.896458 
	C60.756500,41.339417 68.405281,40.866009 75.303307,45.396431 
	C79.198463,47.954655 83.087807,50.564281 86.701675,53.493813 
	C89.263397,55.570435 91.556709,56.087151 94.352699,54.256065 
	C95.319000,53.623241 96.399071,52.940891 97.501602,52.774616 
	C106.407555,51.431469 109.158676,45.377239 109.664452,37.386524 
	C109.821220,34.909752 110.340996,32.435040 110.906845,30.008888 
	C112.788879,21.939377 119.107948,16.821537 127.414093,16.713900 
	C134.909592,16.616768 142.407684,16.638523 149.903885,16.699339 
	C159.091690,16.773878 165.260147,21.841486 167.128616,30.910704 
	C168.034515,35.307678 168.800125,39.741978 169.402512,44.190086 
	C169.801804,47.138546 170.917847,49.131107 174.002945,49.924747 
	C176.247650,50.502205 178.677795,51.100159 180.507614,52.411354 
	C186.179443,56.475605 190.836334,54.763672 195.473328,50.649166 
	C197.326447,49.004848 199.555008,47.784641 201.607407,46.363781 
	C210.808456,39.993938 217.599609,40.410213 225.722824,48.126648 
	C230.791397,52.941399 235.668762,57.960014 240.566589,62.951275 
	C246.894745,69.400177 247.816147,77.135384 242.971786,84.802429 
	C240.485657,88.737167 237.637634,92.450623 234.836456,96.176346 
	C232.951233,98.683784 232.310028,101.174614 234.090302,103.976395 
	C234.356430,104.395226 234.652008,104.852562 234.729584,105.325600 
	C236.553909,116.449684 244.180420,119.332550 254.194260,119.835159 
	C261.848297,120.219330 267.835114,123.870346 270.439056,131.727127 
	C271.083984,133.672989 271.289459,135.613235 271.288727,137.618591 
	C271.286194,144.782120 271.333771,151.946030 271.276672,159.109100 
	C271.196686,169.138290 265.425262,175.692520 255.496170,177.142670 
	C255.166794,177.190781 254.833069,177.208237 254.502289,177.247665 
	C239.203842,179.071152 239.265778,179.095062 233.681274,193.618027 
	C232.729568,196.093018 232.845840,198.052902 234.360138,200.122986 
	C237.014557,203.751617 239.651917,207.394897 242.204010,211.095779 
	C247.715408,219.088013 247.093292,227.321426 240.386261,234.230347 
	C235.514099,239.249176 230.605240,244.239700 225.544525,249.066452 
	C217.830460,256.423859 210.373947,256.929382 201.690811,250.928070 
	C200.868713,250.359863 200.062363,249.768753 199.237534,249.204620 
	C187.138992,240.929840 187.157562,240.971497 173.700439,247.210419 
	C171.626953,248.171692 170.654343,249.565384 170.272690,251.693054 
	C169.362137,256.769043 168.552490,261.873871 167.364304,266.886963 
	C165.324783,275.491913 159.761292,280.044403 151.056595,280.226013 
	C143.230225,280.389282 135.394272,280.403442 127.568855,280.217651 
	C119.136406,280.017456 113.397987,275.319672 111.529617,267.170044 
	C110.414764,262.307220 109.567909,257.373718 108.826614,252.438049 
	C108.410072,249.664627 107.291710,247.743179 104.487503,247.019577 
	C104.327995,246.978394 104.167969,246.911728 104.028412,246.824554 
	C95.346985,241.400864 87.459541,241.894989 80.004196,249.398651 
	C77.112503,252.309067 73.493385,254.633163 68.693268,255.148407 
M63.548359,98.163170 
	C64.331398,100.207535 63.848942,102.198875 62.879196,103.950966 
	C58.904911,111.131447 55.988274,118.722870 53.665432,126.570480 
	C52.494652,130.525940 49.636120,132.518387 45.680305,133.163162 
	C39.601036,134.154022 33.534328,135.225861 27.444942,136.148895 
	C24.916485,136.532166 23.586184,137.562439 23.639465,140.353302 
	C23.747332,146.003159 23.652161,151.657852 23.579876,157.309769 
	C23.544317,160.089981 24.627628,161.498550 27.575687,161.903763 
	C33.179714,162.674072 38.699902,164.100998 44.313515,164.741913 
	C50.099140,165.402466 53.387058,168.516159 54.831791,173.859711 
	C56.627926,180.502975 59.399700,186.707748 62.769169,192.683746 
	C64.918709,196.496109 64.922997,200.237503 62.237915,203.920807 
	C58.707104,208.764206 55.408932,213.779007 51.820705,218.578033 
	C49.836071,221.232361 50.042942,223.278809 52.403576,225.526062 
	C56.143608,229.086502 59.819431,232.726120 63.334412,236.507034 
	C65.635422,238.982132 67.667244,238.883057 70.254898,236.975128 
	C75.348282,233.219650 80.584045,229.656738 85.774948,226.034302 
	C88.571976,224.082397 91.559341,223.470413 94.721130,225.086212 
	C102.000702,228.806320 109.454231,232.072113 117.311569,234.414169 
	C121.025108,235.521042 122.855972,238.234360 123.402588,242.131683 
	C124.234032,248.059875 125.515366,253.924057 126.396301,259.846588 
	C126.902214,263.247772 128.453186,264.843689 132.012268,264.635620 
	C136.997833,264.344177 142.001251,264.122131 146.990768,264.213104 
	C150.600449,264.278870 152.037140,262.551270 152.558899,259.284973 
	C153.450333,253.704315 154.757462,248.178589 155.404495,242.573746 
	C155.994705,237.461212 158.859222,234.828812 163.474594,233.664230 
	C170.482147,231.895996 176.951874,228.835739 183.250778,225.423691 
	C187.032608,223.375092 190.470856,223.329681 193.988525,225.866913 
	C198.987457,229.472595 204.079437,232.949753 209.061508,236.578125 
	C211.425644,238.299896 213.406525,238.556381 215.598846,236.217834 
	C219.240784,232.333008 222.995621,228.545410 226.852158,224.873627 
	C229.153564,222.682480 229.639526,220.822906 227.499100,218.095474 
	C224.009705,213.649139 220.967758,208.854843 217.601028,204.308075 
	C214.485596,200.100708 213.987411,195.889114 216.788406,191.324982 
	C220.475555,185.316925 222.977280,178.783539 224.818634,172.009995 
	C225.946075,167.862595 228.416901,165.398865 232.672302,164.662262 
	C238.904251,163.583527 245.121002,162.417068 251.351517,161.329788 
	C253.895569,160.885834 255.691391,159.996964 255.598312,156.885727 
	C255.444199,151.733414 255.364212,146.565292 255.596085,141.419296 
	C255.778595,137.369370 253.899887,135.874542 250.154755,135.376602 
	C244.715042,134.653351 239.347717,133.388931 233.909424,132.650711 
	C228.989990,131.982910 226.183182,129.336975 224.828827,124.669579 
	C222.828278,117.775383 220.274933,111.105721 216.550629,104.905289 
	C214.063599,100.764740 214.432220,96.789497 217.487503,92.858505 
	C220.959686,88.391174 223.911545,83.516708 227.425140,79.085274 
	C229.690292,76.228439 229.352936,74.258400 226.819183,71.902367 
	C223.162827,68.502449 219.627487,64.952690 216.268112,61.259827 
	C213.919693,58.678284 211.853302,58.307045 209.013840,60.529095 
	C204.556000,64.017632 199.834900,67.167595 195.319626,70.585564 
	C191.280548,73.643066 187.341476,73.982956 182.830063,71.394325 
	C176.755600,67.908806 170.360611,65.000511 163.484451,63.431866 
	C158.257278,62.239399 155.533829,59.042416 154.746475,53.838791 
	C153.850830,47.919392 152.686371,42.039955 151.833313,36.115139 
	C151.438843,33.375492 150.013184,32.220894 147.456116,32.592209 
	C142.790298,33.269737 138.173050,32.943790 133.510330,32.539555 
	C129.490784,32.191074 126.411926,33.247746 125.896584,38.237129 
	C125.333519,43.688450 124.125839,49.071999 123.235886,54.491127 
	C122.532722,58.772900 120.550995,61.990875 116.134926,63.226368 
	C108.716133,65.301933 101.690216,68.323685 94.977974,72.073845 
	C91.225937,74.170113 87.676315,73.981583 84.207420,71.488686 
	C79.608856,68.183952 74.899834,65.021568 70.437630,61.542328 
	C67.305481,59.100147 64.803947,58.607956 61.904217,61.941406 
	C58.850304,65.452103 55.426971,68.649979 52.069157,71.884995 
	C49.533810,74.327614 49.119026,76.543266 51.303051,79.676598 
	C55.387405,85.536247 60.183277,90.930550 63.548359,98.163170 
z"/>
<path fill="rgba(75, 150, 255, 1)" opacity="1.000000" stroke="none" 
	d="
M185.124390,113.932220 
	C210.411362,148.843597 192.070847,196.173447 150.263382,204.733185 
	C117.540276,211.432968 85.375626,187.089523 82.554024,153.830933 
	C80.255844,126.741829 95.463249,104.839455 117.123451,95.768372 
	C141.743347,85.457817 167.628647,92.499542 185.124390,113.932220 
M171.547897,174.025116 
	C182.883362,159.340500 183.765839,140.247955 173.784424,125.637444 
	C163.458160,110.522179 145.131638,103.933830 127.739861,109.084564 
	C111.504578,113.892799 99.030197,129.198654 98.364517,145.127640 
	C97.578850,163.927399 107.718414,180.503036 123.716568,186.571854 
	C141.387253,193.275131 159.459122,188.698563 171.547897,174.025116 
z"/>
</svg>